<svg width="808" height="598" viewBox="0 0 808 598" fill="none" xmlns="http://www.w3.org/2000/svg">
<path d="M807.094 298.04C807.094 464.135 778.163 585.99 721.784 585.99H665.653V11.6422H721.784C779.152 11.6422 807.094 128.064 807.094 298.04ZM780.141 298.04C780.141 212.664 770.498 86.9283 723.515 86.9283H692.606V510.704H723.515C770.003 510.704 780.141 381.864 780.141 298.04Z" fill="black"/>
<path d="M653.175 585.99H543.879V11.6422H570.832V510.704H653.175V585.99Z" fill="black"/>
<path d="M527.836 585.99H498.41L460.082 335.295H422.496V585.99H395.543V11.6422H463.05C496.679 11.6422 524.621 46.5687 524.621 173.857C524.621 262.337 508.795 307.354 487.53 325.205L527.836 585.99ZM497.174 173.857C497.174 83.0476 469.973 87.7045 467.006 87.7045H422.496V260.009H467.006C469.973 260.009 497.174 265.442 497.174 173.857Z" fill="black"/>
<path d="M377.065 298.816C377.065 468.016 352.585 597.632 296.701 597.632C240.817 597.632 216.336 468.016 216.336 298.816C216.336 129.616 243.289 0 296.701 0C352.585 0 377.065 129.616 377.065 298.816ZM349.618 298.816C349.618 178.513 335.77 76.0623 296.701 76.0623C253.922 76.0623 243.784 178.513 243.784 298.816C243.784 412.909 257.631 522.346 296.701 522.346C335.77 522.346 349.618 412.909 349.618 298.816Z" fill="black"/>
<path d="M212.657 12.4183L174.576 585.99H143.667L106.328 124.959L68.9897 585.99H38.0803L0 12.4183H25.9639L54.4005 452.493L89.7609 12.4183H122.896L158.256 452.493L186.693 12.4183H212.657Z" fill="black"/>
</svg>
