<svg width="1120" height="662" viewBox="0 0 1120 662" fill="none" xmlns="http://www.w3.org/2000/svg">
<path d="M1119.71 329.653C1119.71 513.366 1088.36 648.146 1027.27 648.146H966.438V12.877H1027.27C1089.43 12.877 1119.71 141.648 1119.71 329.653ZM1090.51 329.653C1090.51 235.221 1080.06 96.1487 1029.14 96.1487H995.646V564.874H1029.14C1079.52 564.874 1090.51 422.368 1090.51 329.653Z" fill="black"/>
<path d="M952.916 648.146H834.475V12.877H863.684V564.874H952.916V648.146Z" fill="black"/>
<path d="M817.089 648.146H785.201L743.666 370.86H702.935V648.146H673.727V12.877H746.881C783.325 12.877 813.605 51.5081 813.605 192.298C813.605 290.163 796.455 339.955 773.41 359.7L817.089 648.146ZM783.861 192.298C783.861 91.8564 754.385 97.0072 751.169 97.0072H702.935V287.588H751.169C754.385 287.588 783.861 293.597 783.861 192.298Z" fill="black"/>
<path d="M653.702 330.512C653.702 517.659 627.173 661.023 566.613 661.023C506.053 661.023 479.524 517.659 479.524 330.512C479.524 143.365 508.732 0 566.613 0C627.173 0 653.702 143.365 653.702 330.512ZM623.958 330.512C623.958 197.449 608.952 84.1303 566.613 84.1303C520.255 84.1303 509.268 197.449 509.268 330.512C509.268 456.707 524.274 577.752 566.613 577.752C608.952 577.752 623.958 456.707 623.958 330.512Z" fill="black"/>
<path d="M475.536 13.7354L434.269 648.146H400.773L360.311 138.214L319.848 648.146H286.352L245.085 13.7354H273.221L304.038 500.489L342.357 13.7354H378.264L416.584 500.489L447.4 13.7354H475.536Z" fill="black"/>
<path d="M61.6323 400.906H127.284L94.3242 137.355L61.6323 400.906ZM137.735 485.036H51.1816L30.8161 648.146H0L80.6579 12.877H111.206L188.916 647.288H158.1L137.735 485.036Z" fill="black"/>
</svg>
