<svg width="1512" height="581" viewBox="0 0 1512 581" fill="none" xmlns="http://www.w3.org/2000/svg">
<path d="M1512 280.465C1512 446.56 1483.07 568.415 1426.69 568.415H1370.56V-5.93279H1426.69C1484.06 -5.93279 1512 110.489 1512 280.465ZM1485.05 280.465C1485.05 195.089 1475.4 69.3533 1428.42 69.3533H1397.51V493.129H1428.42C1474.91 493.129 1485.05 364.289 1485.05 280.465Z" fill="black"/>
<path d="M1358.08 568.415H1248.79V-5.93279H1275.74V493.129H1358.08V568.415Z" fill="black"/>
<path d="M1232.74 568.415H1203.32L1164.99 317.72H1127.4V568.415H1100.45V-5.93279H1167.96C1201.58 -5.93279 1229.53 28.9937 1229.53 156.282C1229.53 244.762 1213.7 289.779 1192.44 307.63L1232.74 568.415ZM1202.08 156.282C1202.08 65.4726 1174.88 70.1295 1171.91 70.1295H1127.4V242.434H1171.91C1174.88 242.434 1202.08 247.867 1202.08 156.282Z" fill="black"/>
<path d="M1081.97 281.241C1081.97 450.441 1057.49 580.057 1001.61 580.057C945.722 580.057 921.242 450.441 921.242 281.241C921.242 112.041 948.195 -17.575 1001.61 -17.575C1057.49 -17.575 1081.97 112.041 1081.97 281.241ZM1054.52 281.241C1054.52 160.938 1040.68 58.4873 1001.61 58.4873C958.828 58.4873 948.69 160.938 948.69 281.241C948.69 395.334 962.537 504.771 1001.61 504.771C1040.68 504.771 1054.52 395.334 1054.52 281.241Z" fill="black"/>
<path d="M917.562 -5.15665L879.482 568.415H848.573L811.234 107.384L773.895 568.415H742.986L704.906 -5.15665H730.87L759.306 434.918L794.667 -5.15665H827.801L863.162 434.918L891.598 -5.15665H917.562Z" fill="black"/>
<path d="M646.855 280.465C646.855 446.56 617.924 568.415 561.546 568.415H505.414V-5.93279H561.546C618.913 -5.93279 646.855 110.489 646.855 280.465ZM619.902 280.465C619.902 195.089 610.259 69.3533 563.276 69.3533H532.367V493.129H563.276C609.764 493.129 619.902 364.289 619.902 280.465Z" fill="black"/>
<path d="M478.166 568.415H451.213V313.063H366.645V568.415H339.692V-5.15665H366.645V237.001H451.213V-5.15665H478.166V568.415Z" fill="black"/>
<path d="M321.206 280.465C321.206 446.56 292.275 568.415 235.897 568.415H179.765V-5.93279H235.897C293.264 -5.93279 321.206 110.489 321.206 280.465ZM294.254 280.465C294.254 195.089 284.61 69.3533 237.628 69.3533H206.718V493.129H237.628C284.115 493.129 294.254 364.289 294.254 280.465Z" fill="black"/>
<path d="M50.042 344.885H110.624L80.2095 106.608L50.042 344.885ZM120.268 420.947H40.3982L21.6053 568.415H-6.8313L67.5985 -5.93279H95.7879L167.498 567.639H139.061L120.268 420.947Z" fill="black"/>
</svg>
