<svg width="808" height="581" viewBox="0 0 808 581" fill="none" xmlns="http://www.w3.org/2000/svg">
<path d="M807.094 280.465C807.094 446.56 778.163 568.415 721.784 568.415H665.653V-5.93279H721.784C779.152 -5.93279 807.094 110.489 807.094 280.465ZM780.141 280.465C780.141 195.089 770.498 69.3533 723.515 69.3533H692.606V493.129H723.515C770.003 493.129 780.141 364.289 780.141 280.465Z" fill="black"/>
<path d="M653.175 568.415H543.879V-5.93279H570.832V493.129H653.175V568.415Z" fill="black"/>
<path d="M527.836 568.415H498.41L460.082 317.72H422.496V568.415H395.543V-5.93279H463.05C496.679 -5.93279 524.621 28.9937 524.621 156.282C524.621 244.762 508.795 289.779 487.53 307.63L527.836 568.415ZM497.174 156.282C497.174 65.4726 469.973 70.1295 467.006 70.1295H422.496V242.434H467.006C469.973 242.434 497.174 247.867 497.174 156.282Z" fill="black"/>
<path d="M377.065 281.241C377.065 450.441 352.585 580.057 296.701 580.057C240.817 580.057 216.336 450.441 216.336 281.241C216.336 112.041 243.289 -17.575 296.701 -17.575C352.585 -17.575 377.065 112.041 377.065 281.241ZM349.618 281.241C349.618 160.938 335.77 58.4873 296.701 58.4873C253.922 58.4873 243.784 160.938 243.784 281.241C243.784 395.334 257.631 504.771 296.701 504.771C335.77 504.771 349.618 395.334 349.618 281.241Z" fill="black"/>
<path d="M212.657 -5.15665L174.576 568.415H143.667L106.328 107.384L68.9897 568.415H38.0803L0 -5.15665H25.9639L54.4005 434.918L89.7609 -5.15665H122.896L158.256 434.918L186.693 -5.15665H212.657Z" fill="black"/>
</svg>
