<svg width="1102" height="662" viewBox="0 0 1102 662" fill="none" xmlns="http://www.w3.org/2000/svg">
<path d="M1101.9 329.653C1101.9 513.366 1070.54 648.146 1009.45 648.146H948.618V12.877H1009.45C1071.61 12.877 1101.9 141.648 1101.9 329.653ZM1072.69 329.653C1072.69 235.221 1062.24 96.1487 1011.32 96.1487H977.827V564.874H1011.32C1061.7 564.874 1072.69 422.368 1072.69 329.653Z" fill="black"/>
<path d="M935.097 648.146H816.655V12.877H845.864V564.874H935.097V648.146Z" fill="black"/>
<path d="M799.269 648.146H767.381L725.846 370.86H685.115V648.146H655.907V12.877H729.062C765.505 12.877 795.785 51.5081 795.785 192.298C795.785 290.163 778.635 339.955 755.59 359.7L799.269 648.146ZM766.041 192.298C766.041 91.8564 736.565 97.0072 733.349 97.0072H685.115V287.588H733.349C736.565 287.588 766.041 293.597 766.041 192.298Z" fill="black"/>
<path d="M635.882 330.512C635.882 517.659 609.354 661.023 548.793 661.023C488.233 661.023 461.704 517.659 461.704 330.512C461.704 143.365 490.912 0 548.793 0C609.354 0 635.882 143.365 635.882 330.512ZM606.138 330.512C606.138 197.449 591.132 84.1303 548.793 84.1303C502.435 84.1303 491.448 197.449 491.448 330.512C491.448 456.707 506.455 577.752 548.793 577.752C591.132 577.752 606.138 456.707 606.138 330.512Z" fill="black"/>
<path d="M457.716 13.7354L416.45 648.146H382.954L342.491 138.214L302.028 648.146H268.532L227.265 13.7354H255.402L286.218 500.489L324.537 13.7354H360.445L398.764 500.489L429.58 13.7354H457.716Z" fill="black"/>
<path d="M138.474 648.146H111.521V365.709H26.953V648.146H0V13.7354H26.953V281.579H111.521V13.7354H138.474V648.146Z" fill="black"/>
</svg>
